<svg width="91" height="89" viewBox="0 0 91 89" fill="none" xmlns="http://www.w3.org/2000/svg">
<path d="M47.2625 17.9818C52.385 17.9818 56.5376 13.9565 56.5376 8.99091C56.5376 4.02537 52.385 0 47.2625 0C42.1399 0 37.9873 4.02537 37.9873 8.99091C37.9873 13.9565 42.1399 17.9818 47.2625 17.9818Z" fill="#646464"/>
<path opacity="0.92" d="M35.6941 9.79936C38.0911 13.7392 36.632 18.8913 32.5676 21.1138C28.5032 23.4373 23.1883 22.023 20.8955 18.0831C18.4986 14.1433 19.9576 8.99118 24.022 6.76871C28.0864 4.44522 33.2971 5.85952 35.6941 9.79936Z" fill="#646464"/>
<path opacity="0.84" d="M18.3951 20.6093C22.2511 22.8317 23.6059 27.5797 21.4174 31.4186C19.1246 35.1563 14.2265 36.4696 10.2663 34.3482C6.41034 32.1257 5.05554 27.3777 7.24407 23.5389C9.5368 19.7001 14.5391 18.3868 18.3951 20.6093Z" fill="#646464"/>
<path opacity="0.76" d="M16.7866 47.5917C17.7683 43.5741 15.2043 39.5457 11.0597 38.5941C6.91508 37.6424 2.75934 40.1278 1.7776 44.1454C0.795859 48.163 3.35987 52.1914 7.50449 53.143C11.6491 54.0947 15.8048 51.6093 16.7866 47.5917Z" fill="#646464"/>
<path opacity="0.68" d="M21.3849 66.1088C22.4372 62.3388 20.1375 58.4557 16.2484 57.4356C12.3592 56.4154 8.35335 58.6446 7.30098 62.4146C6.24862 66.1846 8.54829 70.0677 12.4374 71.0878C16.3266 72.1079 20.3325 69.8787 21.3849 66.1088Z" fill="#646464"/>
<path opacity="0.6" d="M22.2502 74.3522C24.1261 71.1196 28.3989 70.0083 31.7338 71.9277C35.0687 73.7461 36.2151 77.888 34.235 81.1207C32.3591 84.3534 28.0863 85.4646 24.7514 83.5452C21.5207 81.7268 20.3743 77.5849 22.2502 74.3522Z" fill="#646464"/>
<path opacity="0.52" d="M40.6963 82.6354C40.6963 79.0996 43.6143 76.271 47.2619 76.271C50.9094 76.271 53.8274 79.0996 53.8274 82.6354C53.8274 86.1711 50.9094 88.9997 47.2619 88.9997C43.6143 88.9997 40.6963 86.1711 40.6963 82.6354Z" fill="#646464"/>
<path opacity="0.44" d="M61.0184 80.7156C59.351 77.887 60.2889 74.2502 63.207 72.6339C66.125 71.0175 69.8767 71.9267 71.5442 74.7553C73.2116 77.5839 72.2737 81.2207 69.3557 82.837C66.4376 84.4534 62.6859 83.5442 61.0184 80.7156Z" fill="#646464"/>
<path opacity="0.36" d="M77.2756 68.9976C74.566 67.4822 73.628 64.0475 75.1913 61.4209C76.7545 58.7944 80.2978 57.8852 83.0074 59.4005C85.717 60.9158 86.655 64.3506 85.0917 66.9771C83.5285 69.6037 80.0894 70.5129 77.2756 68.9976Z" fill="#646464"/>
<path opacity="0.28" d="M85.3013 51.0156C88.2367 51.0156 90.6163 48.7089 90.6163 45.8635C90.6163 43.0181 88.2367 40.7114 85.3013 40.7114C82.3659 40.7114 79.9863 43.0181 79.9863 45.8635C79.9863 48.7089 82.3659 51.0156 85.3013 51.0156Z" fill="#646464"/>
<path opacity="0.2" d="M82.5909 31.5194C80.2981 32.8326 77.2759 32.0245 75.9211 29.802C74.5663 27.5795 75.4 24.6499 77.6927 23.3366C79.9855 22.0233 83.0077 22.8315 84.3625 25.054C85.7173 27.2765 84.9878 30.2061 82.5909 31.5194Z" fill="#646464"/>
<path opacity="0.12" d="M67.4059 18.1368C69.7942 17.508 71.2045 15.1215 70.5558 12.8064C69.9071 10.4913 67.4451 9.12426 65.0568 9.75306C62.6685 10.3819 61.2583 12.7684 61.907 15.0835C62.5556 17.3986 65.0176 18.7656 67.4059 18.1368Z" fill="#646464"/>
</svg>
